<?xml version="1.0" encoding="UTF-8" standalone="no"?>
<!-- Created with Inkscape (http://www.inkscape.org/) -->

<svg
   width="16"
   height="16"
   viewBox="0 0 4.2333332 4.2333335"
   version="1.1"
   id="svg5"
   inkscape:version="1.1 (c68e22c387, 2021-05-23)"
   sodipodi:docname="component.svg"
   xmlns:inkscape="http://www.inkscape.org/namespaces/inkscape"
   xmlns:sodipodi="http://sodipodi.sourceforge.net/DTD/sodipodi-0.dtd"
   xmlns="http://www.w3.org/2000/svg"
   xmlns:svg="http://www.w3.org/2000/svg">
  <sodipodi:namedview
     id="namedview7"
     pagecolor="#505050"
     bordercolor="#eeeeee"
     borderopacity="1"
     inkscape:pageshadow="0"
     inkscape:pageopacity="0"
     inkscape:pagecheckerboard="0"
     inkscape:document-units="px"
     showgrid="false"
     inkscape:zoom="28.94646"
     inkscape:cx="3.3510143"
     inkscape:cy="8.6884546"
     inkscape:window-width="1920"
     inkscape:window-height="991"
     inkscape:window-x="-9"
     inkscape:window-y="-9"
     inkscape:window-maximized="1"
     inkscape:current-layer="layer1"
     units="px" />
  <defs
     id="defs2" />
  <g
     inkscape:label="Calque 1"
     inkscape:groupmode="layer"
     id="layer1">
    <path
       id="rect858"
       style="fill:#f5db66;fill-rule:evenodd;stroke-width:0.978278;stroke-linecap:round;stroke-linejoin:round;fill-opacity:1"
       d="M 5.9746094 1 C 5.432669 1.0136385 5 1.4546562 5 2 L 5 3 L 4 3 C 3.446 3 3 3.446 3 4 L 3 5 L 2 5 C 1.454656 5 1.013638 5.432669 1 5.9746094 C 0.99978302 5.9832267 1 5.9913449 1 6 C 1 6.5540001 1.446 7 2 7 L 3 7 L 3 9 L 2 9 C 1.454656 9 1.013638 9.432669 1 9.9746094 C 0.99978302 9.9832267 1 9.9913449 1 10 C 1 10.554 1.446 11 2 11 L 3 11 L 3 12 C 3 12.554 3.446 13 4 13 L 5 13 L 5 14 C 5 14.545344 5.432669 14.986362 5.9746094 15 C 5.9832267 15.000217 5.9913449 15 6 15 C 6.5540001 15 7 14.554 7 14 L 7 13 L 9 13 L 9 14 C 9 14.545344 9.432669 14.986362 9.9746094 15 C 9.9832267 15.000217 9.9913449 15 10 15 C 10.554 15 11 14.554 11 14 L 11 13 L 12 13 C 12.554 13 13 12.554 13 12 L 13 11 L 14 11 C 14.554 11 15 10.554 15 10 C 15 9.9913449 15.000217 9.9832267 15 9.9746094 C 14.986362 9.432669 14.545343 9 14 9 L 13 9 L 13 7 L 14 7 C 14.554 7 15 6.5540001 15 6 C 15 5.9913449 15.000217 5.9832267 15 5.9746094 C 14.986362 5.432669 14.545343 5 14 5 L 13 5 L 13 4 C 13 3.446 12.554 3 12 3 L 11 3 L 11 2 C 11 1.446 10.554 1 10 1 C 9.9913437 1 9.9832116 0.99978352 9.9746094 1 C 9.432669 1.0136385 9 1.4546562 9 2 L 9 3 L 7 3 L 7 2 C 7 1.446 6.5540001 1 6 1 C 5.9913437 1 5.9832116 0.99978352 5.9746094 1 z M 5.4746094 5 C 5.483155 4.9995696 5.4913437 5 5.5 5 L 10.5 5 C 10.777 5 11 5.223 11 5.5 L 11 10.5 C 11 10.777 10.777 11 10.5 11 L 5.5 11 C 5.223 11 5 10.777 5 10.5 L 5 5.5 C 5 5.2316562 5.209695 5.0133421 5.4746094 5 z M 7.3769531 7 C 7.1663772 7.0106054 7 7.1831825 7 7.3964844 L 7 8.6035156 C 7 8.8236982 7.1763018 9 7.3964844 9 L 8.6035156 9 C 8.8236982 9 9 8.8236982 9 8.6035156 L 9 7.3964844 C 9 7.1763018 8.8236982 7 8.6035156 7 L 7.3964844 7 C 7.3896037 7 7.3837459 6.9996579 7.3769531 7 z "
       transform="scale(0.26458333)" />
  </g>
</svg>
