<?xml version="1.0" encoding="UTF-8" standalone="no"?>
<svg
   width="512"
   height="512"
   viewBox="0 0 512 512"
   fill="none"
   version="1.1"
   id="svg1"
   sodipodi:docname="github_ubl.svg"
   inkscape:version="1.3 (0e150ed6c4, 2023-07-21)"
   inkscape:export-filename="github_ubl.png"
   inkscape:export-xdpi="96"
   inkscape:export-ydpi="96"
   xmlns:inkscape="http://www.inkscape.org/namespaces/inkscape"
   xmlns:sodipodi="http://sodipodi.sourceforge.net/DTD/sodipodi-0.dtd"
   xmlns="http://www.w3.org/2000/svg"
   xmlns:svg="http://www.w3.org/2000/svg">
  <defs
     id="defs1" />
  <sodipodi:namedview
     id="namedview1"
     pagecolor="#505050"
     bordercolor="#eeeeee"
     borderopacity="1"
     inkscape:showpageshadow="0"
     inkscape:pageopacity="0"
     inkscape:pagecheckerboard="0"
     inkscape:deskcolor="#505050"
     inkscape:zoom="2.013597"
     inkscape:cx="154.69828"
     inkscape:cy="371.47452"
     inkscape:window-width="1920"
     inkscape:window-height="991"
     inkscape:window-x="-9"
     inkscape:window-y="-9"
     inkscape:window-maximized="1"
     inkscape:current-layer="svg1" />
  <circle
     style="fill:#ffffff;fill-opacity:1;stroke:none;stroke-width:1.99219;stroke-linecap:round;stroke-linejoin:round;stroke-miterlimit:0"
     id="path5"
     cx="256"
     cy="256"
     r="255" />
  <path
     id="path1"
     style="stroke-width:32;stroke:none;fill:#14191e;fill-opacity:1"
     d="M 256 0 C 114.56014 0 0 114.56014 0 256 C 0 369.27989 73.279164 464.96089 175.03906 498.88086 C 187.83905 501.12086 192.64063 493.4407 192.64062 486.7207 C 192.64062 480.64071 192.32031 460.47904 192.32031 439.03906 C 128.00038 450.87905 111.36023 423.36092 106.24023 408.96094 C 103.36024 401.60094 90.879989 378.88078 80 372.80078 C 71.040009 368.00079 58.239709 356.15984 79.679688 355.83984 C 99.839667 355.51984 114.23907 374.40009 119.03906 382.08008 C 142.07904 420.80004 178.87962 409.91921 193.59961 403.19922 C 195.83961 386.55924 202.55993 375.36093 209.91992 368.96094 L 210.41992 368.96094 C 148.95202 353.16038 97.063604 306.27661 72.476562 243.89844 C 102.95309 166.57837 175.36946 113.0293 256 113.0293 C 336.62788 113.0293 409.04599 166.57589 439.52344 243.89844 C 414.9372 306.27461 363.04895 353.15983 301.58008 368.96094 L 303.03906 368.96094 C 312.31905 376.96093 320.32031 392.32034 320.32031 416.32031 C 320.32031 450.56028 320 478.08071 320 486.7207 C 320 493.4407 324.79962 501.44086 337.59961 498.88086 C 438.71951 464.96089 512 368.95989 512 256 C 512 114.56014 397.43986 0 256 0 z M 256 146.41211 C 191.40815 146.41211 136.37457 188.9687 109.18164 243.89844 C 136.3721 298.82322 191.40283 341.38477 256 341.38477 C 320.59185 341.38477 375.62543 298.82808 402.81836 243.89844 C 375.6279 188.97365 320.59708 146.41211 256 146.41211 z M 255.69336 165.37695 C 299.05943 165.37695 334.21484 200.53237 334.21484 243.89844 C 334.21484 287.2645 299.05943 322.41992 255.69336 322.41992 L 255.69336 165.37695 z M 281.86719 198.60547 L 281.86719 289.08984 C 298.01921 279.76459 307.98592 262.54894 308.04102 243.89844 C 308.02625 225.21132 298.05069 207.94907 281.86719 198.60547 z " />
</svg>
