<?xml version="1.0" encoding="UTF-8" standalone="no"?>
<svg
   height="64"
   viewBox="0 -960 2560 2560"
   width="64"
   version="1.1"
   id="svg1"
   sodipodi:docname="UBL.svg"
   xml:space="preserve"
   inkscape:version="1.3 (0e150ed6c4, 2023-07-21)"
   inkscape:export-filename="icon_16.png"
   inkscape:export-xdpi="66.782608"
   inkscape:export-ydpi="66.782608"
   xmlns:inkscape="http://www.inkscape.org/namespaces/inkscape"
   xmlns:sodipodi="http://sodipodi.sourceforge.net/DTD/sodipodi-0.dtd"
   xmlns="http://www.w3.org/2000/svg"
   xmlns:svg="http://www.w3.org/2000/svg"><defs
     id="defs1" /><sodipodi:namedview
     id="namedview1"
     pagecolor="#505050"
     bordercolor="#eeeeee"
     borderopacity="1"
     inkscape:showpageshadow="0"
     inkscape:pageopacity="0"
     inkscape:pagecheckerboard="0"
     inkscape:deskcolor="#505050"
     showgrid="true"
     inkscape:zoom="8"
     inkscape:cx="27.8125"
     inkscape:cy="29.1875"
     inkscape:window-width="1920"
     inkscape:window-height="991"
     inkscape:window-x="-9"
     inkscape:window-y="-9"
     inkscape:window-maximized="1"
     inkscape:current-layer="svg1"><inkscape:grid
       id="grid1"
       units="px"
       originx="0"
       originy="0"
       spacingx="40"
       spacingy="40"
       empcolor="#0099e5"
       empopacity="0.30196078"
       color="#0099e5"
       opacity="0.14901961"
       empspacing="5"
       dotted="false"
       gridanglex="30"
       gridanglez="30"
       visible="true" /></sodipodi:namedview><circle
     style="fill:#000000;stroke-width:80;stroke-linecap:square;stroke-miterlimit:0"
     id="path4"
     cx="1280"
     cy="320"
     r="1280" /><path
     d="M 1279.9999,-680 C 928.52061,-680 612.85118,-446.57499 480,-109.52647 c 132.85544,337.05928 448.53223,570.47352 799.9999,570.47352 351.4796,0 667.1488,-233.42513 800.0001,-570.47352 C 1947.1446,-446.58578 1631.4677,-680 1279.9999,-680 Z m 0,145.5153 c 281.5874,0 521.4731,185.53375 640,424.95823 -118.5375,239.44582 -358.4355,424.95822 -640,424.95822 -281.5873,0 -521.47295,-185.53388 -639.99991,-424.95822 118.53752,-239.44581 358.43557,-424.95823 639.99991,-424.95823 z m -1.337,82.6741 v 684.56821 c 189.0384,0 342.284,-153.24574 342.284,-342.28408 0,-189.03833 -153.2456,-342.28413 -342.284,-342.28413 z m 114.0947,144.84679 c 70.5461,40.72978 114.0304,115.97778 114.0948,197.43734 -0.2234,81.30017 -43.6862,156.34167 -114.0948,196.99153 z"
     style="color:#000000;fill:#ffffff;stroke-width:1.49101;-inkscape-stroke:none"
     id="path1-0" /><text
     xml:space="preserve"
     style="font-style:normal;font-variant:normal;font-weight:normal;font-stretch:normal;font-size:960px;line-height:0;font-family:Sylfaen;-inkscape-font-specification:Sylfaen;letter-spacing:0px;fill:none;fill-opacity:1;stroke:#ffffff;stroke-width:80;stroke-linecap:round;stroke-linejoin:round;stroke-miterlimit:0;stroke-dasharray:none;stroke-opacity:1"
     x="360"
     y="1165.9375"
     id="text4"><tspan
       sodipodi:role="line"
       id="tspan4"
       style="font-style:normal;font-variant:normal;font-weight:normal;font-stretch:normal;font-size:960px;font-family:Sylfaen;-inkscape-font-specification:Sylfaen;stroke-width:80;stroke-dasharray:none"
       x="360"
       y="1165.9375">UBL</tspan></text></svg>
