<?xml version="1.0" encoding="UTF-8" standalone="no"?>
<!-- Created with Inkscape (http://www.inkscape.org/) -->

<svg
   width="28"
   height="28"
   viewBox="0 0 7.4083331 7.4083331"
   version="1.1"
   id="svg1"
   inkscape:version="1.3 (0e150ed6c4, 2023-07-21)"
   sodipodi:docname="unsee.svg"
   xmlns:inkscape="http://www.inkscape.org/namespaces/inkscape"
   xmlns:sodipodi="http://sodipodi.sourceforge.net/DTD/sodipodi-0.dtd"
   xmlns="http://www.w3.org/2000/svg"
   xmlns:svg="http://www.w3.org/2000/svg">
  <sodipodi:namedview
     id="namedview1"
     pagecolor="#505050"
     bordercolor="#eeeeee"
     borderopacity="1"
     inkscape:showpageshadow="0"
     inkscape:pageopacity="0"
     inkscape:pagecheckerboard="0"
     inkscape:deskcolor="#505050"
     inkscape:document-units="px"
     inkscape:zoom="7.8715825"
     inkscape:cx="-2.3502263"
     inkscape:cy="26.995842"
     inkscape:window-width="1920"
     inkscape:window-height="991"
     inkscape:window-x="-9"
     inkscape:window-y="-9"
     inkscape:window-maximized="1"
     inkscape:current-layer="layer1"
     showgrid="true">
    <inkscape:grid
       id="grid1"
       units="px"
       originx="0"
       originy="0"
       spacingx="0.52916665"
       spacingy="0.52916665"
       empcolor="#0099e5"
       empopacity="0.30196078"
       color="#0099e5"
       opacity="0.14901961"
       empspacing="5"
       dotted="false"
       gridanglex="30"
       gridanglez="30"
       visible="true" />
  </sodipodi:namedview>
  <defs
     id="defs1" />
  <g
     inkscape:label="Calque 1"
     inkscape:groupmode="layer"
     id="layer1"
     transform="translate(-49.477081,-92.868753)">
    <g
       id="g1"
       transform="matrix(0.60000028,0,0,0.60000028,20.319985,38.665698)">
      <path
         id="path1-0"
         style="color:#000000;fill:#ffffff;stroke-width:0.0098624;-inkscape-stroke:none"
         d="M 54.768745 92.984215 C 54.247226 92.984215 53.737886 93.04976 53.251181 93.176279 L 54.003073 93.928171 C 54.25491 93.888852 54.510762 93.866159 54.768745 93.866159 C 56.631325 93.866159 58.39446 94.9283 59.178465 96.511991 C 58.9042 97.066006 58.508321 97.55401 58.03211 97.957208 L 58.648782 98.573879 C 59.250121 98.024283 59.737458 97.33133 60.060409 96.511991 C 59.181628 94.282488 57.093555 92.984215 54.768745 92.984215 z M 50.889569 94.44838 C 50.287618 94.998168 49.80027 95.692049 49.477081 96.511991 C 50.355863 98.741495 52.443936 100.03977 54.768745 100.03977 C 55.290343 100.03977 55.799538 99.973398 56.286309 99.846842 L 55.535278 99.095811 C 55.28317 99.135216 55.027016 99.157823 54.768745 99.157823 C 52.906165 99.157823 51.14303 98.095681 50.359025 96.511991 C 50.633563 95.957423 51.030252 95.469339 51.507102 95.065913 L 50.889569 94.44838 z " />
    </g>
    <g
       id="path2">
      <path
         style="color:#000000;fill:#ffffff;stroke-linecap:round;stroke-linejoin:round;stroke-miterlimit:0;-inkscape-stroke:none"
         d="m 50.006248,93.927086 0,-0.529166 0.529166,0 5.820833,5.820833 0,0.529166 -0.529166,0 z"
         id="path6"
         sodipodi:nodetypes="ccccccc" />
    </g>
  </g>
</svg>
