<?xml version="1.0" encoding="UTF-8" standalone="no"?>
<svg
   height="64"
   viewBox="0 -960 2560 2560"
   width="64"
   version="1.1"
   id="svg1"
   sodipodi:docname="dungeon_icon.svg"
   xml:space="preserve"
   inkscape:version="1.3 (0e150ed6c4, 2023-07-21)"
   inkscape:export-filename="icon_16.png"
   inkscape:export-xdpi="66.782608"
   inkscape:export-ydpi="66.782608"
   xmlns:inkscape="http://www.inkscape.org/namespaces/inkscape"
   xmlns:sodipodi="http://sodipodi.sourceforge.net/DTD/sodipodi-0.dtd"
   xmlns="http://www.w3.org/2000/svg"
   xmlns:svg="http://www.w3.org/2000/svg"><defs
     id="defs1" /><sodipodi:namedview
     id="namedview1"
     pagecolor="#505050"
     bordercolor="#eeeeee"
     borderopacity="1"
     inkscape:showpageshadow="0"
     inkscape:pageopacity="0"
     inkscape:pagecheckerboard="0"
     inkscape:deskcolor="#505050"
     showgrid="true"
     inkscape:zoom="121.5"
     inkscape:cx="62.226338"
     inkscape:cy="1.600823"
     inkscape:window-width="1920"
     inkscape:window-height="991"
     inkscape:window-x="-9"
     inkscape:window-y="-9"
     inkscape:window-maximized="1"
     inkscape:current-layer="svg1"><inkscape:grid
       id="grid1"
       units="px"
       originx="0"
       originy="0"
       spacingx="40"
       spacingy="40"
       empcolor="#0099e5"
       empopacity="0.30196078"
       color="#0099e5"
       opacity="0.14901961"
       empspacing="5"
       dotted="false"
       gridanglex="30"
       gridanglez="30"
       visible="true" /></sodipodi:namedview><g
     id="path1"
     transform="matrix(2.7391304,0,0,2.7391304,-34.782609,1634.7826)"><path
       style="color:#000000;fill:#000000;-inkscape-stroke:none"
       d="m 40,-40 v -160 l 80,-80 v -400 l -80,-80 v -160 h 80 v 80 h 80 v -80 h 120 v 80 h 80 v -80 h 160 v 80 h 80 v -80 h 120 v 80 h 80 v -80 h 80 v 160 l -80,80 v 400 l 80,80 V -40 H 560 v -120 c 0,-22 -7.83333,-40.83333 -23.5,-56.5 C 520.83333,-232.16667 502,-240 480,-240 c -22,0 -40.83333,7.83333 -56.5,23.5 -15.66667,15.66667 -23.5,34.5 -23.5,56.5 v 120 z"
       id="path2" /><path
       id="path3"
       style="color:#000000;fill:#ffffff;-inkscape-stroke:none"
       d="m 20,-940 v 188.28125 l 80,80 v 383.4375 l -80,80 V -20 h 20 380 v -140 c 0,-17.25249 5.29946,-29.98697 17.65625,-42.34375 C 450.01303,-214.70054 462.74751,-220 480,-220 c 17.25249,0 29.98697,5.29946 42.34375,17.65625 C 534.70054,-189.98697 540,-177.25249 540,-160 v 140 h 400 v -188.28125 l -80,-80 v -383.4375 l 80,-80 V -940 H 820 v 80 h -40 v -80 H 620 v 80 h -40 v -80 H 380 v 80 h -40 v -80 H 180 v 80 h -40 v -80 z m 40,40 h 40 v 80 h 120 v -80 h 80 v 80 h 120 v -80 h 120 v 80 h 120 v -80 h 80 v 80 h 120 v -80 h 40 v 131.71875 l -80,80 v 416.5625 l 80,80 V -60 H 580 v -100 c 0,-26.74742 -10.39851,-51.64851 -29.375,-70.625 C 531.64851,-249.60149 506.74742,-260 480,-260 c -26.74742,0 -51.64851,10.39851 -70.625,29.375 C 390.39851,-211.64851 380,-186.74742 380,-160 V -60 H 60 v -131.71875 l 80,-80 v -416.5625 l -80,-80 z m 420.46875,180 C 357.245,-720 246.57576,-638.16447 200,-520 c 46.57725,118.16824 157.24909,200 280.46875,200 123.22376,0 233.89299,-81.83555 280.46875,-200 -46.57725,-118.16825 -157.24912,-200 -280.46875,-200 z m 0,51.01562 c 98.72057,0 182.82111,65.04552 224.375,148.98438 -41.5576,83.94634 -125.6625,148.98438 -224.375,148.98438 -98.72056,-10e-6 -182.82111,-65.04554 -224.375,-148.98438 41.55759,-83.94634 125.66246,-148.98438 224.375,-148.98438 z M 480,-640 v 240 A 120,120 0 0 0 600,-520 120,120 0 0 0 480,-640 Z m 40,50.78125 c 24.73246,14.27928 39.9774,40.6602 40,69.21875 -0.0783,28.50269 -15.31577,54.81119 -40,69.0625 z" /></g></svg>
