<?xml version="1.0" encoding="UTF-8" standalone="no"?>
<svg
   height="24"
   viewBox="0 -960 960 960"
   width="24"
   version="1.1"
   id="svg1"
   sodipodi:docname="happy.svg"
   xml:space="preserve"
   inkscape:version="1.3 (0e150ed6c4, 2023-07-21)"
   inkscape:export-filename="happy.png"
   inkscape:export-xdpi="4274.0869"
   inkscape:export-ydpi="4274.0869"
   xmlns:inkscape="http://www.inkscape.org/namespaces/inkscape"
   xmlns:sodipodi="http://sodipodi.sourceforge.net/DTD/sodipodi-0.dtd"
   xmlns="http://www.w3.org/2000/svg"
   xmlns:svg="http://www.w3.org/2000/svg"><defs
     id="defs1" /><sodipodi:namedview
     id="namedview1"
     pagecolor="#505050"
     bordercolor="#eeeeee"
     borderopacity="1"
     inkscape:showpageshadow="0"
     inkscape:pageopacity="0"
     inkscape:pagecheckerboard="0"
     inkscape:deskcolor="#505050"
     showgrid="true"
     inkscape:zoom="21.478368"
     inkscape:cx="9.288415"
     inkscape:cy="11.290429"
     inkscape:window-width="1920"
     inkscape:window-height="991"
     inkscape:window-x="-9"
     inkscape:window-y="-9"
     inkscape:window-maximized="1"
     inkscape:current-layer="svg1"><inkscape:grid
       id="grid1"
       units="px"
       originx="0"
       originy="0"
       spacingx="40"
       spacingy="40"
       empcolor="#0099e5"
       empopacity="0.30196078"
       color="#0099e5"
       opacity="0.14901961"
       empspacing="5"
       dotted="false"
       gridanglex="30"
       gridanglez="30"
       visible="true" /></sodipodi:namedview><g
     id="path1"><path
       style="color:#000000;fill:#000000;-inkscape-stroke:none"
       d="m 40,-40 v -160 l 80,-80 v -400 l -80,-80 v -160 h 80 v 80 h 80 v -80 h 120 v 80 h 80 v -80 h 160 v 80 h 80 v -80 h 120 v 80 h 80 v -80 h 80 v 160 l -80,80 v 400 l 80,80 V -40 H 560 v -120 c 0,-22 -7.83333,-40.83333 -23.5,-56.5 C 520.83333,-232.16667 502,-240 480,-240 c -22,0 -40.83333,7.83333 -56.5,23.5 -15.66667,15.66667 -23.5,34.5 -23.5,56.5 v 120 z"
       id="path2" /><path
       id="path3"
       style="color:#000000;fill:#ffffff;-inkscape-stroke:none"
       d="m 20,-940 v 188.28125 l 80,80 v 383.4375 l -80,80 V -20 h 20 380 v -140 c 0,-17.25245 5.29948,-29.98699 17.65625,-42.34375 C 450.01301,-214.70052 462.74755,-220 480,-220 c 17.25245,0 29.98699,5.29948 42.34375,17.65625 C 534.70052,-189.98699 540,-177.25245 540,-160 v 140 h 400 v -188.28125 l -80,-80 v -383.4375 l 80,-80 V -940 H 820 v 80 h -40 v -80 H 620 v 80 h -40 v -80 H 380 v 80 h -40 v -80 H 180 v 80 h -40 v -80 z m 40,40 h 40 v 80 h 120 v -80 h 80 v 80 h 120 v -80 h 120 v 80 h 120 v -80 h 80 v 80 h 120 v -80 h 40 v 131.71875 l -80,80 v 416.5625 l 80,80 V -60 H 580 v -100 c 0,-26.74736 -10.39855,-51.64855 -29.375,-70.625 C 531.64855,-249.60145 506.74736,-260 480,-260 c -26.74736,0 -51.64855,10.39855 -70.625,29.375 C 390.39855,-211.64855 380,-186.74736 380,-160 V -60 H 60 v -131.71875 l 80,-80 v -416.5625 l -80,-80 z m 220,220 28.90625,57.73438 C 261.24198,-587.15071 222.86619,-538.0124 200,-480 h 56.09375 c 41.55751,-83.94618 125.66266,-148.98438 224.375,-148.98438 98.72037,0 182.82119,65.04568 224.375,148.98438 H 760.9375 C 737.96406,-538.28448 699.38025,-587.66694 651.40625,-622.8125 L 680,-680 h -40 l -18.90625,37.8125 C 578.5807,-666.22375 530.61103,-680 480.46875,-680 c -50.44215,0 -98.70697,13.89812 -141.40625,38.20312 L 320,-680 Z"
       sodipodi:nodetypes="ccccccccsssssccccccccccccccccccccccccccccccccccccccccccccccccssssscccccccccccsccccccsccc" /></g></svg>
