<?xml version="1.0" encoding="UTF-8" standalone="no"?>
<!-- Created with Inkscape (http://www.inkscape.org/) -->

<svg
   width="16"
   height="16"
   viewBox="0 0 4.2333332 4.2333335"
   version="1.1"
   id="svg1614"
   inkscape:version="1.1 (c68e22c387, 2021-05-23)"
   sodipodi:docname="enemy.svg"
   inkscape:export-filename="D:\GAMES\GODOT 4\GODOT4PROJECT\EXPERIMENTS\Components\addons\components\classes\icons\spritesheet\enemy.png"
   inkscape:export-xdpi="768.00006"
   inkscape:export-ydpi="768.00006"
   xmlns:inkscape="http://www.inkscape.org/namespaces/inkscape"
   xmlns:sodipodi="http://sodipodi.sourceforge.net/DTD/sodipodi-0.dtd"
   xmlns="http://www.w3.org/2000/svg"
   xmlns:svg="http://www.w3.org/2000/svg">
  <sodipodi:namedview
     id="namedview1616"
     pagecolor="#505050"
     bordercolor="#eeeeee"
     borderopacity="1"
     inkscape:pageshadow="0"
     inkscape:pageopacity="0"
     inkscape:pagecheckerboard="0"
     inkscape:document-units="mm"
     showgrid="false"
     units="px"
     inkscape:zoom="28.94646"
     inkscape:cx="5.2856204"
     inkscape:cy="7.2374999"
     inkscape:window-width="1920"
     inkscape:window-height="991"
     inkscape:window-x="-9"
     inkscape:window-y="-9"
     inkscape:window-maximized="1"
     inkscape:current-layer="layer1" />
  <defs
     id="defs1611" />
  <g
     inkscape:label="Calque 1"
     inkscape:groupmode="layer"
     id="layer1">
    <path
       id="path14229"
       style="fill:#ff0b5f;fill-opacity:1;fill-rule:evenodd;stroke-width:0.520484;stroke-linecap:round;stroke-linejoin:round"
       d="M 2.0976869,0.26458689 C 1.9559299,0.26602217 0.89276141,0.71925793 0.79353921,0.82051015 0.69432116,0.92175815 0.26315192,1.9938894 0.26458692,2.1356464 0.2660222,2.2774034 0.71925796,3.3405719 0.82051021,3.4397941 0.92175821,3.5390121 1.9938895,3.9701814 2.1356465,3.9687464 2.2774035,3.9673109 3.340572,3.5140753 3.4397942,3.4128231 3.5390122,3.3115751 3.9701814,2.2394438 3.9687464,2.0976868 3.967311,1.9559298 3.5140754,0.89276135 3.4128232,0.79353915 3.3115752,0.69432113 2.2394439,0.26315189 2.0976869,0.26458689 Z m 0.018984,0.39908683 c 0.1529836,0 0.4795028,1.30001068 0.4795028,1.45299358 0,0.1529836 -0.3265192,1.4529938 -0.4795028,1.4529938 -0.1529836,0 -0.4795029,-1.3000107 -0.4795029,-1.4529938 0,-0.1529836 0.3265193,-1.45299358 0.4795029,-1.45299358 z" />
  </g>
</svg>
