<?xml version="1.0" encoding="UTF-8" standalone="no"?>
<svg
   height="16"
   viewBox="0 -960 320 320"
   width="16"
   version="1.1"
   id="svg4"
   sodipodi:docname="health.svg"
   inkscape:version="1.1 (c68e22c387, 2021-05-23)"
   inkscape:export-filename="D:\GAMES\GODOT 4\GODOT4PROJECT\EXPERIMENTS\Components\addons\components\classes\icons\spritesheet\health.png"
   inkscape:export-xdpi="768"
   inkscape:export-ydpi="768"
   xmlns:inkscape="http://www.inkscape.org/namespaces/inkscape"
   xmlns:sodipodi="http://sodipodi.sourceforge.net/DTD/sodipodi-0.dtd"
   xmlns="http://www.w3.org/2000/svg"
   xmlns:svg="http://www.w3.org/2000/svg">
  <defs
     id="defs8" />
  <sodipodi:namedview
     id="namedview6"
     pagecolor="#505050"
     bordercolor="#eeeeee"
     borderopacity="1"
     inkscape:pageshadow="0"
     inkscape:pageopacity="0"
     inkscape:pagecheckerboard="0"
     showgrid="false"
     inkscape:zoom="42.308556"
     inkscape:cx="7.1380361"
     inkscape:cy="7.9062022"
     inkscape:window-width="1920"
     inkscape:window-height="991"
     inkscape:window-x="-9"
     inkscape:window-y="-9"
     inkscape:window-maximized="1"
     inkscape:current-layer="svg4" />
  <path
     d="m 160,-675.05 q -3.85,0 -7.7,-1.4 -3.85,-1.4 -6.65,-4.2 L 127.1,-697.8 Q 83.7,-738.05 51.85,-774.625 20,-811.2 20,-851.1 q 0,-31.5 21.175,-52.675 21.175,-21.175 52.325,-21.175 17.85,0 35.35,8.575 17.5,8.575 31.15,28.175 15.4,-19.6 31.85,-28.175 16.45,-8.575 34.65,-8.575 31.15,0 52.325,21.175 Q 300,-882.6 300,-851.1 q 0,39.9 -31.85,76.475 -31.85,36.575 -75.25,76.825 l -18.55,17.15 q -2.8,2.8 -6.65,4.2 -3.85,1.4 -7.7,1.4 z"
     id="path2"
     style="fill:#f5db66;fill-opacity:1;stroke-width:0.35;stroke:none" />
</svg>
