<?xml version="1.0" encoding="UTF-8" standalone="no"?>
<svg
   height="16"
   viewBox="0 -960 640 640"
   width="16"
   version="1.1"
   id="svg4"
   sodipodi:docname="pathfinding.svg"
   inkscape:version="1.1 (c68e22c387, 2021-05-23)"
   inkscape:export-filename="D:\GAMES\GODOT 4\GODOT4PROJECT\EXPERIMENTS\Components\addons\components\classes\icons\spritesheet\pathfinding.png"
   inkscape:export-xdpi="768"
   inkscape:export-ydpi="768"
   xmlns:inkscape="http://www.inkscape.org/namespaces/inkscape"
   xmlns:sodipodi="http://sodipodi.sourceforge.net/DTD/sodipodi-0.dtd"
   xmlns="http://www.w3.org/2000/svg"
   xmlns:svg="http://www.w3.org/2000/svg">
  <defs
     id="defs8">
    <marker
       style="overflow:visible"
       id="TriangleInS"
       refX="0.0"
       refY="0.0"
       orient="auto"
       inkscape:stockid="TriangleInS"
       inkscape:isstock="true">
      <path
         transform="scale(-0.2)"
         style="fill-rule:evenodd;fill:context-stroke;stroke:context-stroke;stroke-width:1.0pt"
         d="M 5.77,0.0 L -2.88,5.0 L -2.88,-5.0 L 5.77,0.0 z "
         id="path5928" />
    </marker>
    <marker
       style="overflow:visible"
       id="DotS"
       refX="0.0"
       refY="0.0"
       orient="auto"
       inkscape:stockid="DotS"
       inkscape:isstock="true">
      <path
         transform="scale(0.2) translate(7.4, 1)"
         style="fill-rule:evenodd;fill:context-stroke;stroke:context-stroke;stroke-width:1.0pt"
         d="M -2.5,-1.0 C -2.5,1.7600000 -4.7400000,4.0 -7.5,4.0 C -10.260000,4.0 -12.5,1.7600000 -12.5,-1.0 C -12.5,-3.7600000 -10.260000,-6.0 -7.5,-6.0 C -4.7400000,-6.0 -2.5,-3.7600000 -2.5,-1.0 z "
         id="path5856" />
    </marker>
    <marker
       style="overflow:visible"
       id="marker11614"
       refX="0.0"
       refY="0.0"
       orient="auto"
       inkscape:stockid="Arrow2Sstart"
       inkscape:isstock="true">
      <path
         transform="scale(0.3) translate(-2.3,0)"
         d="M 8.7185878,4.0337352 L -2.2072895,0.016013256 L 8.7185884,-4.0017078 C 6.9730900,-1.6296469 6.9831476,1.6157441 8.7185878,4.0337352 z "
         style="fill-rule:evenodd;fill:context-stroke;stroke-width:0.62500000;stroke-linejoin:round"
         id="path11612" />
    </marker>
    <marker
       style="overflow:visible"
       id="Arrow2Sstart"
       refX="0.0"
       refY="0.0"
       orient="auto"
       inkscape:stockid="Arrow2Sstart"
       inkscape:isstock="true">
      <path
         transform="scale(0.3) translate(-2.3,0)"
         d="M 8.7185878,4.0337352 L -2.2072895,0.016013256 L 8.7185884,-4.0017078 C 6.9730900,-1.6296469 6.9831476,1.6157441 8.7185878,4.0337352 z "
         style="fill-rule:evenodd;fill:context-stroke;stroke-width:0.62500000;stroke-linejoin:round"
         id="path5819" />
    </marker>
    <marker
       style="overflow:visible"
       id="DotL"
       refX="0.0"
       refY="0.0"
       orient="auto"
       inkscape:stockid="DotL"
       inkscape:isstock="true">
      <path
         transform="scale(0.8) translate(7.4, 1)"
         style="fill-rule:evenodd;fill:context-stroke;stroke:context-stroke;stroke-width:1.0pt"
         d="M -2.5,-1.0 C -2.5,1.7600000 -4.7400000,4.0 -7.5,4.0 C -10.260000,4.0 -12.5,1.7600000 -12.5,-1.0 C -12.5,-3.7600000 -10.260000,-6.0 -7.5,-6.0 C -4.7400000,-6.0 -2.5,-3.7600000 -2.5,-1.0 z "
         id="path5850" />
    </marker>
  </defs>
  <sodipodi:namedview
     id="namedview6"
     pagecolor="#505050"
     bordercolor="#eeeeee"
     borderopacity="1"
     inkscape:pageshadow="0"
     inkscape:pageopacity="0"
     inkscape:pagecheckerboard="0"
     showgrid="false"
     inkscape:zoom="45.254834"
     inkscape:cx="5.9883106"
     inkscape:cy="8.2090678"
     inkscape:window-width="1920"
     inkscape:window-height="991"
     inkscape:window-x="-9"
     inkscape:window-y="-9"
     inkscape:window-maximized="1"
     inkscape:current-layer="svg4"
     showguides="false" />
  <g
     id="g868">
    <path
       id="path4295"
       style="color:#000000;fill:#f5db66;stroke:none;stroke-width:0.025;stroke-linejoin:round;stroke-miterlimit:2.1;stroke-dashoffset:96;-inkscape-stroke:none"
       d="m 6.7070312,3 -1,1 1,1 H 12 V 7 H 3 C 2.4477381,7.0000552 2.0000552,7.4477381 2,8 v 4 c 5.52e-5,0.552262 0.4477381,0.999945 1,1 h 6.25 c -0.3772669,-0.653445 -0.3714255,-1.356672 0,-2 H 4 V 9 h 9 c 0.552262,-5.52e-5 0.999945,-0.4477381 1,-1 V 4 C 13.999945,3.4477381 13.552262,3.0000552 13,3 Z"
       transform="matrix(40,0,0,40,0,-960)"
       sodipodi:nodetypes="cccccccccccccccccc" />
    <g
       id="g14700"
       style="stroke:#000000;stroke-opacity:1;stroke-width:120;stroke-miterlimit:4;stroke-dasharray:none"
       transform="translate(-320)" />
    <path
       id="path6301"
       style="color:#000000;fill:#f5db66;stroke:none;stroke-width:1;stroke-linecap:round;stroke-opacity:1;-inkscape-stroke:none"
       d="m 94.843752,-879.29688 c -3.39564,0.89992 -6.494384,2.67832 -8.984376,5.15626 -7.808472,7.81014 -7.808472,20.4711 0,28.28124 L 131.71875,-800 85.859376,-754.14062 c -7.808472,7.81014 -7.808472,20.4711 0,28.28124 7.81014,7.80848 20.471104,7.80848 28.281244,0 L 160,-771.71875 l 45.85938,45.85937 c 7.81014,7.80848 20.4711,7.80848 28.28124,0 7.80848,-7.81014 7.80848,-20.4711 0,-28.28124 L 188.28,-800 l 45.86062,-45.85938 c 7.80848,-7.81014 7.80848,-20.4711 0,-28.28124 -5.05217,-5.03758 -12.40532,-7.00239 -19.29687,-5.15626 -3.39565,0.8999 -6.49438,2.67831 -8.98437,5.15626 L 160,-828.28125 114.14062,-874.14062 c -5.05217,-5.03758 -12.40532,-7.00239 -19.296868,-5.15626 z"
       sodipodi:nodetypes="ccccccccccccccccccc" />
    <path
       style="color:#000000;fill:#f5db66;fill-rule:evenodd;stroke-width:34.1333;stroke-linecap:round;stroke-linejoin:round;-inkscape-stroke:none;stroke:none"
       d="m 560,-480 a 80,80 0 0 1 -80,80 80,80 0 0 1 -80,-80 80,80 0 0 1 80,-80 80,80 0 0 1 80,80 z"
       id="circle1585" />
  </g>
</svg>
