<?xml version="1.0" encoding="UTF-8" standalone="no"?>
<!-- Created with Inkscape (http://www.inkscape.org/) -->

<svg
   width="16"
   height="16"
   viewBox="0 0 4.2333332 4.2333335"
   version="1.1"
   id="svg5"
   inkscape:version="1.1 (c68e22c387, 2021-05-23)"
   sodipodi:docname="speed.svg"
   xmlns:inkscape="http://www.inkscape.org/namespaces/inkscape"
   xmlns:sodipodi="http://sodipodi.sourceforge.net/DTD/sodipodi-0.dtd"
   xmlns="http://www.w3.org/2000/svg"
   xmlns:svg="http://www.w3.org/2000/svg">
  <sodipodi:namedview
     id="namedview7"
     pagecolor="#505050"
     bordercolor="#eeeeee"
     borderopacity="1"
     inkscape:pageshadow="0"
     inkscape:pageopacity="0"
     inkscape:pagecheckerboard="0"
     inkscape:document-units="px"
     showgrid="false"
     units="px"
     inkscape:zoom="40.936476"
     inkscape:cx="5.2520398"
     inkscape:cy="6.9986483"
     inkscape:window-width="1920"
     inkscape:window-height="991"
     inkscape:window-x="-9"
     inkscape:window-y="-9"
     inkscape:window-maximized="1"
     inkscape:current-layer="layer1"
     showguides="false" />
  <defs
     id="defs2" />
  <g
     inkscape:label="Calque 1"
     inkscape:groupmode="layer"
     id="layer1">
    <g
       id="g5755"
       transform="matrix(0.90701869,0,0,0.9791732,0.16212177,0.04403598)"
       style="fill:#8da5f3;fill-opacity:1;stroke:#8da5f3;stroke-opacity:1">
      <g
         id="path3844"
         inkscape:transform-center-x="-0.26352069"
         transform="matrix(0.16615558,0,0,0.22351074,1.8536943,0.2657467)">
        <path
           id="path6194"
           style="color:#000000;fill-rule:evenodd;stroke:none;stroke-width:1.88523;stroke-linecap:round;stroke-linejoin:round;-inkscape-stroke:none"
           d="M 7.2695312,1 A 0.78222656,1.1361201 0 0 0 7.0878906,1.015625 0.78222656,1.1361201 0 0 0 6.8320312,1.1503906 0.78222656,1.1361201 0 0 0 6.4414062,2.1347656 V 3.4707031 L 10.667969,7.015625 a 0.78222657,1.1361201 0 0 1 0,1.96875 l -4.2265628,3.544922 v 1.337891 a 0.78222656,1.1361201 0 0 0 1.1738282,0.982421 L 14.609375,8.984375 a 0.78222656,1.1361201 0 0 0 0,-1.96875 L 7.6152344,1.1503906 A 0.78222656,1.1361201 0 0 0 7.2695312,1 Z"
           transform="matrix(1.7553639,0,0,1.2085803,-12.230068,-1.3875191)" />
      </g>
      <path
         sodipodi:type="star"
         style="opacity:1;fill:#8da5f3;fill-opacity:1;fill-rule:evenodd;stroke:#8da5f3;stroke-width:2.74591;stroke-linecap:round;stroke-linejoin:round;stroke-miterlimit:4;stroke-dasharray:none;stroke-opacity:1"
         id="path4241"
         inkscape:flatsided="true"
         sodipodi:sides="3"
         sodipodi:cx="4.5436249"
         sodipodi:cy="8.2811232"
         sodipodi:r1="8.1857443"
         sodipodi:r2="4.0928721"
         sodipodi:arg1="0"
         sodipodi:arg2="1.0471976"
         inkscape:rounded="0"
         inkscape:randomized="0"
         d="m 12.729369,8.2811232 -12.27861626,7.0890628 0,-14.1781253 z"
         transform="matrix(0.16615558,0,0,0.22351074,0.26619427,0.2657467)"
         inkscape:transform-center-x="-0.26352069" />
      <g
         id="path6162"
         inkscape:transform-center-x="-0.26352069"
         transform="matrix(0.16615558,0,0,0.22351074,0.55815625,0.2657467)" />
    </g>
  </g>
</svg>
